<svg width="65" height="27" viewBox="0 0 65 27" fill="none" xmlns="http://www.w3.org/2000/svg">
<path d="M18.0062 11.6784C18.0062 12.1137 18.019 12.4722 18.0446 12.7539C18.0702 13.0355 18.115 13.2724 18.179 13.4644C18.2431 13.6565 18.3327 13.8165 18.4479 13.9445C18.5631 14.0597 18.7168 14.1686 18.9088 14.271H15.068C15.26 14.1686 15.4137 14.0597 15.5289 13.9445C15.6441 13.8165 15.7337 13.6565 15.7977 13.4644C15.8618 13.2724 15.9066 13.0355 15.9322 12.7539C15.9578 12.4722 15.9706 12.1137 15.9706 11.6784V3.51674C15.9706 3.08145 15.9578 2.72298 15.9322 2.44132C15.9066 2.15966 15.8618 1.92281 15.7977 1.73077C15.7337 1.53873 15.6441 1.3851 15.5289 1.26988C15.4137 1.14185 15.26 1.02662 15.068 0.924203H18.0062C18.0958 0.924203 18.2174 0.924203 18.3711 0.924203C18.5375 0.924203 18.7296 0.917802 18.9472 0.904999C19.1264 0.892197 19.2865 0.885796 19.4273 0.885796C19.5681 0.885796 19.6962 0.885796 19.8114 0.885796C20.4771 0.885796 21.0468 0.949809 21.5205 1.07784C22.007 1.20586 22.4359 1.4043 22.8072 1.67316C23.2169 1.98042 23.5434 2.3709 23.7866 2.8446C24.0299 3.3055 24.1515 3.7792 24.1515 4.2657C24.1515 4.64978 24.0683 5.02746 23.9018 5.39873C23.7482 5.77001 23.5242 6.10928 23.2297 6.41655C22.9352 6.72381 22.5832 6.99266 22.1735 7.22311C21.7766 7.45356 21.3413 7.6264 20.8676 7.74162C21.623 8.76583 22.2951 9.64282 22.884 10.3726C23.4729 11.0895 24.0043 11.704 24.4779 12.2162C24.9645 12.7283 25.4125 13.1507 25.8222 13.4836C26.2319 13.8037 26.6416 14.0661 27.0513 14.271C26.744 14.2966 26.488 14.3158 26.2831 14.3286C26.0911 14.3414 25.9311 14.3542 25.803 14.367C25.675 14.3798 25.5662 14.3862 25.4766 14.3862C25.3869 14.3862 25.2909 14.3862 25.1885 14.3862C24.894 14.3862 24.6316 14.3542 24.4011 14.2902C24.1707 14.239 23.9338 14.143 23.6906 14.0021C23.4601 13.8485 23.2169 13.6436 22.9608 13.3876C22.7048 13.1187 22.4039 12.7795 22.0582 12.3698C21.4565 11.6656 20.8484 10.8847 20.2339 10.0269C19.6321 9.15631 19.056 8.25373 18.5055 7.31913C20.7588 6.93505 21.8854 5.96845 21.8854 4.41933C21.8854 3.75359 21.655 3.21588 21.1941 2.8062C20.746 2.38371 20.1571 2.17246 19.4273 2.17246C19.2097 2.17246 18.992 2.18527 18.7744 2.21087C18.5695 2.22367 18.3135 2.26208 18.0062 2.32609V11.6784Z" fill="white"/>
<path d="M28.6992 1.17386C29.0321 1.17386 29.3202 1.30188 29.5634 1.55793C29.8067 1.80119 29.9283 2.08925 29.9283 2.42211C29.9283 2.78059 29.8067 3.08145 29.5634 3.3247C29.3202 3.56795 29.0193 3.68958 28.6608 3.68958C28.3151 3.68958 28.0207 3.56795 27.7774 3.3247C27.5342 3.08145 27.4126 2.78059 27.4126 2.42211C27.4126 2.07644 27.5342 1.78198 27.7774 1.53873C28.0207 1.29548 28.3279 1.17386 28.6992 1.17386ZM29.621 12.2738C29.621 12.6066 29.6274 12.8691 29.6402 13.0611C29.653 13.2532 29.685 13.4196 29.7362 13.5604C29.7875 13.6885 29.8643 13.8037 29.9667 13.9061C30.0691 14.0085 30.2099 14.1301 30.3892 14.271H27.0285C27.2077 14.1301 27.3485 14.0085 27.451 13.9061C27.5534 13.8037 27.6302 13.6885 27.6814 13.5604C27.7326 13.4196 27.7646 13.2532 27.7774 13.0611C27.7902 12.8691 27.7966 12.6066 27.7966 12.2738V6.91585C27.7966 6.59578 27.7902 6.33973 27.7774 6.14769C27.7646 5.94285 27.7326 5.77641 27.6814 5.64839C27.6302 5.50756 27.5534 5.38593 27.451 5.28351C27.3485 5.18109 27.2077 5.05946 27.0285 4.91863H28.4304C28.7248 4.91863 28.9617 4.89303 29.1409 4.84182C29.3202 4.7778 29.4802 4.67538 29.621 4.53455V12.2738Z" fill="white"/>
<path d="M34.861 10.5646C34.861 11.1279 34.8866 11.544 34.9378 11.8129C34.989 12.0689 35.0851 12.2866 35.2259 12.4658C35.61 12.9267 36.1285 13.1571 36.7814 13.1571C36.935 13.1571 37.0695 13.1443 37.1847 13.1187C37.2999 13.0931 37.4471 13.0483 37.6264 12.9843L36.5702 14.4246C36.4293 14.4758 36.3077 14.5078 36.2053 14.5206C36.1157 14.5334 35.994 14.5398 35.8404 14.5398C35.4179 14.5398 35.0402 14.463 34.7074 14.3094C34.3745 14.1686 34.0608 13.9509 33.7664 13.6565C33.6127 13.49 33.4847 13.33 33.3823 13.1764C33.2927 13.0227 33.2223 12.8435 33.1711 12.6386C33.1198 12.421 33.0814 12.1649 33.0558 11.8705C33.043 11.5632 33.0366 11.1855 33.0366 10.7374V6.26291H31.6539V5.53316C32.3581 5.41794 32.915 5.12348 33.3247 4.64978C33.824 4.11207 34.0736 3.27989 34.0736 2.15326V1.90361H34.861V4.91863H36.4357C36.7686 4.91863 37.0183 4.91223 37.1847 4.89943C37.3511 4.88663 37.4984 4.85462 37.6264 4.80341V6.62779C37.4599 6.48696 37.2935 6.39094 37.1271 6.33973C36.9606 6.28852 36.7046 6.26291 36.3589 6.26291H34.861V10.5646Z" fill="white"/>
<path d="M43.7271 6.01326C43.2662 6.01326 42.8437 6.09648 42.4596 6.26291C42.0884 6.42935 41.7683 6.6598 41.4994 6.95426C41.2306 7.24872 41.0193 7.60719 40.8657 8.02968C40.7121 8.43937 40.6353 8.89386 40.6353 9.39316C40.6353 9.93088 40.7185 10.4366 40.8849 10.9103C41.0513 11.3712 41.2818 11.7681 41.5763 12.1009C41.8707 12.4338 42.2164 12.6963 42.6133 12.8883C43.0101 13.0803 43.4454 13.1764 43.9191 13.1764C44.38 13.1764 44.8025 13.0995 45.1866 12.9459C45.5835 12.7795 45.9164 12.549 46.1852 12.2546C46.4669 11.9473 46.6845 11.5888 46.8381 11.1791C46.9918 10.7695 47.0686 10.315 47.0686 9.81565C47.0686 9.23953 46.9854 8.72102 46.8189 8.26013C46.6653 7.78643 46.4413 7.38315 46.1468 7.05028C45.8523 6.71741 45.5003 6.46135 45.0906 6.28212C44.6809 6.10288 44.2264 6.01326 43.7271 6.01326ZM44.0536 4.64978C45.4491 4.64978 46.6205 5.08507 47.5679 5.95565C48.08 6.42935 48.4705 6.97346 48.7393 7.58799C49.0082 8.20252 49.1426 8.84905 49.1426 9.52759C49.1426 10.2317 49.0018 10.8911 48.7201 11.5056C48.4513 12.1073 48.0736 12.6386 47.5871 13.0995C47.1006 13.5476 46.5309 13.8997 45.8779 14.1558C45.225 14.4118 44.5145 14.5398 43.7463 14.5398C43.0037 14.5398 42.3124 14.4182 41.6723 14.175C41.0449 13.9189 40.5008 13.5732 40.0399 13.1379C39.579 12.7027 39.2142 12.1905 38.9453 11.6016C38.6893 10.9999 38.5612 10.347 38.5612 9.64282C38.5612 8.87466 38.7277 8.15131 39.0605 7.47276C39.3934 6.79422 39.8607 6.22451 40.4624 5.76361C40.9745 5.37953 41.5122 5.09787 42.0756 4.91863C42.6517 4.7394 43.311 4.64978 44.0536 4.64978Z" fill="white"/>
<path d="M11.6854 15.0554C11.2245 14.6329 10.7124 14.3256 10.149 14.1336C9.58572 13.9415 8.90077 13.8455 8.09421 13.8455C7.26203 13.8455 6.49387 13.9799 5.78973 14.2488C5.09838 14.5048 4.50306 14.8697 4.00376 15.3434C3.50445 15.8171 3.11397 16.3868 2.83231 17.0526C2.55065 17.7055 2.40983 18.4225 2.40983 19.2034C2.40983 19.9972 2.56346 20.7397 2.87072 21.4311C3.17799 22.1224 3.59407 22.7306 4.11898 23.2555C4.65669 23.7676 5.28402 24.1773 6.00097 24.4845C6.71792 24.779 7.48608 24.9262 8.30545 24.9262C8.79195 24.9262 9.29766 24.8942 9.82257 24.8302C10.3475 24.7534 10.77 24.6574 11.09 24.5421V21.8536C11.09 21.4183 11.0772 21.0598 11.0516 20.7781C11.026 20.4965 10.9812 20.2596 10.9172 20.0676C10.8532 19.8756 10.7636 19.7219 10.6483 19.6067C10.5331 19.4787 10.3795 19.3635 10.1874 19.261H13.2409C13.1641 19.5171 13.1257 19.914 13.1257 20.4517V24.7534C13.1257 25.0734 13.1321 25.2911 13.1449 25.4063C13.1577 25.5215 13.1897 25.6496 13.2409 25.7904C13.1 25.8032 12.9912 25.816 12.9144 25.8288C12.8504 25.8288 12.7224 25.8544 12.5303 25.9056C12.0694 25.9952 11.6533 26.072 11.2821 26.1361C10.9108 26.2001 10.5651 26.2513 10.2451 26.2897C9.93779 26.3281 9.63053 26.3537 9.32326 26.3665C9.0288 26.3793 8.71514 26.3857 8.38227 26.3857C7.26844 26.3857 6.27623 26.2705 5.40565 26.04C4.53507 25.8096 3.7413 25.4511 3.02435 24.9646C2.08976 24.3245 1.36641 23.5307 0.854302 22.5833C0.354999 21.6359 0.105347 20.5989 0.105347 19.4723C0.105347 18.3072 0.374203 17.2446 0.911914 16.2844C1.44963 15.3114 2.21779 14.492 3.21639 13.8263C3.94614 13.3398 4.73991 12.9813 5.59769 12.7509C6.45547 12.5076 7.41567 12.386 8.47829 12.386C8.75994 12.386 9.0224 12.3924 9.26565 12.4052C9.5089 12.418 9.75215 12.4372 9.9954 12.4628C10.2387 12.4884 10.4947 12.5268 10.7636 12.578C11.0452 12.6164 11.3525 12.6677 11.6854 12.7317V15.0554Z" fill="white"/>
<path d="M20.4994 17.8015C20.0385 17.8015 19.616 17.8847 19.2319 18.0512C18.8606 18.2176 18.5406 18.4481 18.2717 18.7425C18.0029 19.037 17.7916 19.3955 17.638 19.8179C17.4844 20.2276 17.4075 20.6821 17.4075 21.1814C17.4075 21.7191 17.4908 22.2248 17.6572 22.6985C17.8236 23.1594 18.0541 23.5563 18.3485 23.8892C18.643 24.2221 18.9887 24.4845 19.3856 24.6766C19.7824 24.8686 20.2177 24.9646 20.6914 24.9646C21.1523 24.9646 21.5748 24.8878 21.9589 24.7342C22.3558 24.5677 22.6886 24.3373 22.9575 24.0428C23.2392 23.7356 23.4568 23.3771 23.6104 22.9674C23.7641 22.5577 23.8409 22.1032 23.8409 21.6039C23.8409 21.0278 23.7577 20.5093 23.5912 20.0484C23.4376 19.5747 23.2135 19.1714 22.9191 18.8385C22.6246 18.5057 22.2726 18.2496 21.8629 18.0704C21.4532 17.8911 20.9987 17.8015 20.4994 17.8015ZM20.8259 16.438C22.2213 16.438 23.3928 16.8733 24.3402 17.7439C24.8523 18.2176 25.2428 18.7617 25.5116 19.3763C25.7805 19.9908 25.9149 20.6373 25.9149 21.3159C25.9149 22.02 25.7741 22.6793 25.4924 23.2939C25.2236 23.8956 24.8459 24.4269 24.3594 24.8878C23.8729 25.3359 23.3032 25.688 22.6502 25.944C21.9973 26.2001 21.2867 26.3281 20.5186 26.3281C19.776 26.3281 19.0847 26.2065 18.4446 25.9632C17.8172 25.7072 17.2731 25.3615 16.8122 24.9262C16.3513 24.4909 15.9864 23.9788 15.7176 23.3899C15.4615 22.7882 15.3335 22.1352 15.3335 21.4311C15.3335 20.6629 15.4999 19.9396 15.8328 19.261C16.1657 18.5825 16.633 18.0128 17.2347 17.5519C17.7468 17.1678 18.2845 16.8861 18.8478 16.7069C19.424 16.5277 20.0833 16.438 20.8259 16.438Z" fill="white"/>
<path d="M29.9835 18.032C30.4059 17.4559 30.8412 17.0462 31.2893 16.8029C31.7374 16.5597 32.2879 16.438 32.9409 16.438C33.645 16.438 34.2403 16.5789 34.7268 16.8605C35.2133 17.1422 35.6486 17.5967 36.0327 18.224C36.5192 17.5711 36.9993 17.1102 37.473 16.8413C37.9595 16.5725 38.542 16.438 39.2206 16.438C39.9119 16.438 40.5392 16.5725 41.1026 16.8413C41.6659 17.1102 42.0884 17.4687 42.37 17.9168C42.5493 18.224 42.6709 18.5569 42.7349 18.9154C42.8117 19.2738 42.8501 19.7795 42.8501 20.4325V24.062C42.8501 24.3949 42.8629 24.6766 42.8885 24.907C42.9141 25.1246 42.959 25.3103 43.023 25.4639C43.087 25.6048 43.1766 25.72 43.2918 25.8096C43.407 25.8992 43.5607 25.9824 43.7527 26.0592H40.2384C40.4176 25.9312 40.5585 25.816 40.6609 25.7136C40.7761 25.6112 40.8593 25.4959 40.9105 25.3679C40.9617 25.2271 40.9937 25.0606 41.0065 24.8686C41.0193 24.6638 41.0258 24.3949 41.0258 24.062V20.9318C41.0258 20.3685 40.9809 19.9204 40.8913 19.5875C40.8145 19.2546 40.6865 18.9666 40.5072 18.7233C40.3024 18.4801 40.0399 18.288 39.7199 18.1472C39.4126 18.0064 39.0733 17.936 38.7021 17.936C38.254 17.936 37.8443 18.0384 37.473 18.2432C37.1145 18.4481 36.8457 18.7233 36.6664 19.069C36.6152 19.1586 36.5768 19.2482 36.5512 19.3378C36.5256 19.4147 36.5064 19.5043 36.4936 19.6067C36.4808 19.7091 36.468 19.8436 36.4552 20.01C36.4552 20.1636 36.4552 20.3621 36.4552 20.6053V24.062C36.4552 24.3949 36.4616 24.6574 36.4744 24.8494C36.4872 25.0414 36.5192 25.2079 36.5704 25.3487C36.6216 25.4767 36.6984 25.5919 36.8009 25.6944C36.9161 25.7968 37.0633 25.9184 37.2426 26.0592H33.8627C34.0419 25.9312 34.1827 25.816 34.2852 25.7136C34.3876 25.6112 34.4644 25.4959 34.5156 25.3679C34.5668 25.2271 34.5988 25.0606 34.6116 24.8686C34.6244 24.6638 34.6308 24.3949 34.6308 24.062V20.7589C34.6308 19.7987 34.426 19.1074 34.0163 18.6849C33.8114 18.4673 33.5554 18.3008 33.2481 18.1856C32.9537 18.0704 32.6464 18.0128 32.3263 18.0128C31.9295 18.0128 31.5582 18.096 31.2125 18.2624C30.8668 18.4161 30.6044 18.6337 30.4251 18.9154C30.2843 19.1202 30.1883 19.3314 30.1371 19.5491C30.0987 19.7539 30.0795 20.0612 30.0795 20.4709V24.062C30.0795 24.3949 30.0859 24.6638 30.0987 24.8686C30.1115 25.0606 30.1435 25.2271 30.1947 25.3679C30.2459 25.4959 30.3227 25.6112 30.4251 25.7136C30.5276 25.816 30.6684 25.9312 30.8476 26.0592H27.4869C27.6662 25.9184 27.807 25.7968 27.9094 25.6944C28.0118 25.5919 28.0887 25.4767 28.1399 25.3487C28.1911 25.2079 28.2231 25.0414 28.2359 24.8494C28.2487 24.6574 28.2551 24.3949 28.2551 24.062V18.7041C28.2551 18.384 28.2487 18.128 28.2359 17.936C28.2231 17.7311 28.1911 17.5647 28.1399 17.4367C28.0887 17.2958 28.0118 17.1742 27.9094 17.0718C27.807 16.9694 27.6662 16.8477 27.4869 16.7069H28.8888C29.4009 16.7069 29.7658 16.5789 29.9835 16.3228V18.032Z" fill="white"/>
<path d="M52.736 19.914C52.4415 18.4161 51.5837 17.6671 50.1626 17.6671C49.4713 17.6671 48.8888 17.8655 48.4151 18.2624C47.9542 18.6465 47.6469 19.197 47.4933 19.914H52.736ZM47.4165 21.1814C47.4677 22.3721 47.8454 23.3003 48.5495 23.966C49.2665 24.6317 50.2395 24.9646 51.4685 24.9646C52.1471 24.9646 52.7488 24.8814 53.2737 24.715C53.7986 24.5485 54.3299 24.2797 54.8676 23.9084L53.773 25.848C53.3249 26.0272 52.8832 26.1489 52.4479 26.2129C52.0254 26.2897 51.5325 26.3281 50.9692 26.3281C50.1242 26.3281 49.3497 26.2065 48.6455 25.9632C47.9414 25.72 47.3333 25.3807 46.8212 24.9454C46.3218 24.5101 45.9314 23.9916 45.6497 23.3899C45.3681 22.7754 45.2272 22.1032 45.2272 21.3735C45.2272 20.6693 45.3745 19.9844 45.6689 19.3186C45.9634 18.6529 46.3667 18.0832 46.8788 17.6095C47.7621 16.8285 48.8888 16.438 50.2587 16.438C50.9244 16.438 51.5389 16.5469 52.1023 16.7645C52.6656 16.9822 53.1521 17.2894 53.5618 17.6863C53.9714 18.0832 54.2915 18.5505 54.522 19.0882C54.7524 19.6259 54.8676 20.2148 54.8676 20.855V21.1814H47.4165Z" fill="white"/>
<path d="M62.9915 18.4353C62.5306 18.1536 62.1017 17.9552 61.7048 17.8399C61.308 17.7119 60.9047 17.6479 60.495 17.6479C59.9317 17.6479 59.4772 17.7567 59.1315 17.9744C58.7986 18.1792 58.6322 18.4481 58.6322 18.7809C58.6322 19.0754 58.7858 19.325 59.0931 19.5299C59.4132 19.7347 59.9765 19.9652 60.7831 20.2212C61.1671 20.3493 61.4872 20.4645 61.7433 20.5669C62.0121 20.6565 62.2362 20.7461 62.4154 20.8358C62.6074 20.9126 62.7675 21.0022 62.8955 21.1046C63.0363 21.1942 63.1772 21.2967 63.318 21.4119C63.8429 21.8984 64.1053 22.4873 64.1053 23.1786C64.1053 23.6651 63.9965 24.1004 63.7789 24.4845C63.574 24.8686 63.2732 25.2015 62.8763 25.4831C62.4922 25.752 62.0249 25.9568 61.4744 26.0977C60.9239 26.2513 60.3094 26.3281 59.6308 26.3281C59.3748 26.3281 59.1315 26.3217 58.9011 26.3089C58.6834 26.2961 58.4658 26.2705 58.2481 26.2321C58.0433 26.1937 57.832 26.1425 57.6144 26.0784C57.3968 26.0144 57.1599 25.9312 56.9038 25.8288L56.2125 23.8316C56.9679 24.2925 57.6272 24.6189 58.1905 24.811C58.7666 24.9902 59.3748 25.0798 60.0149 25.0798C60.6422 25.0798 61.1607 24.9454 61.5704 24.6766C61.9929 24.4077 62.2041 24.0684 62.2041 23.6587C62.2041 23.2747 62.0505 22.9674 61.7433 22.737C61.6536 22.6857 61.564 22.6345 61.4744 22.5833C61.3848 22.5321 61.2696 22.4809 61.1287 22.4297C61.0007 22.3657 60.8279 22.2953 60.6102 22.2184C60.4054 22.1288 60.1365 22.0264 59.8037 21.9112C59.2147 21.7063 58.7218 21.5079 58.3249 21.3159C57.9409 21.1238 57.6272 20.9254 57.3839 20.7205C57.1535 20.5029 56.9871 20.2724 56.8846 20.0292C56.795 19.7731 56.7502 19.4851 56.7502 19.165C56.7502 18.3072 57.1023 17.6415 57.8064 17.1678C58.5106 16.6813 59.4836 16.438 60.7254 16.438C61.596 16.438 62.3514 16.5277 62.9915 16.7069V18.4353Z" fill="white"/>
</svg>
