<svg width="1808" height="708" viewBox="0 0 1808 708" fill="none" xmlns="http://www.w3.org/2000/svg">
<path fill-rule="evenodd" clip-rule="evenodd" d="M1781.85 231.091L1806.53 210.052L1709.72 134.269V332.48L1611.77 397.483V488.638L1807.66 358.633L1781.85 323.496V231.091ZM1655.54 309.27V91.8599L1581.16 33.6387L1506.78 91.8603V309.27L1581.16 358.633L1655.54 309.27ZM1380.46 231.091L1355.79 210.052L1452.6 134.27V332.481L1550.55 397.483V488.638L1354.66 358.633L1380.46 323.497V231.091Z" fill="#DFBA3E"/>
<path fill-rule="evenodd" clip-rule="evenodd" d="M322.518 149.283L341.146 133.377L268.056 76.0814V225.938L194.112 275.082V344L342 245.71L322.518 219.145V149.283ZM227.153 208.389V44.0181L171 0.000279773L114.847 44.0184V208.39L171 245.71L227.153 208.389ZM19.482 149.283L0.85391 133.377L73.9443 76.0817V225.938L147.888 275.083V344L0 245.711L19.482 219.146V149.283Z" fill="#DFBA3E"/>
<path fill-rule="evenodd" clip-rule="evenodd" d="M581.283 620.36L589.672 613.24L556.759 587.59V654.677L523.463 676.678V707.53L590.056 663.529L581.283 651.636V620.36ZM538.341 646.821V573.236L513.056 553.531L487.771 573.236V646.821L513.056 663.528L538.341 646.821ZM444.829 620.361L436.441 613.24L469.353 587.59V654.677L502.649 676.678V707.53L436.056 663.529L444.829 651.636V620.361Z" fill="#DFBA3E"/>
<path fill-rule="evenodd" clip-rule="evenodd" d="M1121.06 581.851L1125.75 577.875L1107.37 563.551V601.015L1088.77 613.301V630.53L1125.96 605.958L1121.06 599.317V581.851ZM1097.08 596.628V555.535L1082.96 544.53L1068.84 555.535V596.628L1082.96 605.958L1097.08 596.628ZM1044.86 581.851L1040.18 577.875L1058.56 563.551V601.015L1077.15 613.301V630.53L1039.96 605.958L1044.86 599.317V581.851Z" fill="#DFBA3E"/>
</svg>
